<svg xmlns="http://www.w3.org/2000/svg" xmlns:xlink="http://www.w3.org/1999/xlink" width="1000" zoomAndPan="magnify" viewBox="0 0 750 225" height="300" preserveAspectRatio="xMidYMid meet" version="1.0"><defs><g/><clipPath id="056ac68909"><rect x="0" width="416" y="0" height="137"/></clipPath><clipPath id="d8f4197fc2"><rect x="0" width="395" y="0" height="78"/></clipPath></defs><path stroke-linecap="butt" transform="matrix(0.75, -0.000000000000000372, 0.000000000000000372, 0.75, 12, 32.613363)" fill="none" stroke-linejoin="miter" d="M 0.000000666667 7.999891 L 183.630217 7.999891 " stroke="#072763" stroke-width="16" stroke-opacity="1" stroke-miterlimit="4"/><path stroke-linecap="butt" transform="matrix(0.75, 0, 0, 0.75, 12.822917, 109.429025)" fill="none" stroke-linejoin="miter" d="M 0.00173601 8.000883 L 119.845491 8.000883 " stroke="#072763" stroke-width="16" stroke-opacity="1" stroke-miterlimit="4"/><path stroke-linecap="butt" transform="matrix(0.75, 0, 0, 0.75, 12, 185.960335)" fill="none" stroke-linejoin="miter" d="M 0.000000666667 8.000804 L 183.630217 8.000804 " stroke="#072763" stroke-width="16" stroke-opacity="1" stroke-miterlimit="4"/><g transform="matrix(1, 0, 0, 1, 334, 8)"><g clip-path="url(#056ac68909)"><g fill="#072763" fill-opacity="1"><g transform="translate(0.944478, 108.072777)"><g><path d="M 67.078125 -7.046875 L 67.078125 0 L 12.5625 0 L 12.5625 -77.109375 L 65.4375 -77.109375 L 65.4375 -70.0625 L 20.703125 -70.0625 L 20.703125 -42.625 L 60.59375 -42.625 L 60.59375 -35.6875 L 20.703125 -35.6875 L 20.703125 -7.046875 Z M 67.078125 -7.046875 "/></g></g></g><g fill="#072763" fill-opacity="1"><g transform="translate(101.189011, 108.072777)"><g><path d="M 61.140625 -39.765625 C 66.203125 -38.660156 70.109375 -36.472656 72.859375 -33.203125 C 75.617188 -29.941406 77 -25.738281 77 -20.59375 C 77 -13.988281 74.554688 -8.90625 69.671875 -5.34375 C 64.785156 -1.78125 57.570312 0 48.03125 0 L 12.5625 0 L 12.5625 -77.109375 L 45.828125 -77.109375 C 54.421875 -77.109375 61.082031 -75.378906 65.8125 -71.921875 C 70.550781 -68.472656 72.921875 -63.59375 72.921875 -57.28125 C 72.921875 -53.019531 71.875 -49.398438 69.78125 -46.421875 C 67.6875 -43.453125 64.804688 -41.234375 61.140625 -39.765625 Z M 20.703125 -70.390625 L 20.703125 -42.40625 L 45.28125 -42.40625 C 51.519531 -42.40625 56.328125 -43.597656 59.703125 -45.984375 C 63.078125 -48.378906 64.765625 -51.851562 64.765625 -56.40625 C 64.765625 -60.957031 63.078125 -64.425781 59.703125 -66.8125 C 56.328125 -69.195312 51.519531 -70.390625 45.28125 -70.390625 Z M 47.921875 -6.71875 C 54.816406 -6.71875 60.023438 -7.890625 63.546875 -10.234375 C 67.078125 -12.585938 68.84375 -16.265625 68.84375 -21.265625 C 68.84375 -30.878906 61.867188 -35.6875 47.921875 -35.6875 L 20.703125 -35.6875 L 20.703125 -6.71875 Z M 47.921875 -6.71875 "/></g></g></g><g fill="#072763" fill-opacity="1"><g transform="translate(210.796726, 108.072777)"><g><path d="M 67.078125 -7.046875 L 67.078125 0 L 12.5625 0 L 12.5625 -77.109375 L 65.4375 -77.109375 L 65.4375 -70.0625 L 20.703125 -70.0625 L 20.703125 -42.625 L 60.59375 -42.625 L 60.59375 -35.6875 L 20.703125 -35.6875 L 20.703125 -7.046875 Z M 67.078125 -7.046875 "/></g></g></g><g fill="#072763" fill-opacity="1"><g transform="translate(311.041258, 108.072777)"><g><path d="M 77 -77.109375 L 77 0 L 70.28125 0 L 20.703125 -62.5625 L 20.703125 0 L 12.5625 0 L 12.5625 -77.109375 L 19.28125 -77.109375 L 68.953125 -14.546875 L 68.953125 -77.109375 Z M 77 -77.109375 "/></g></g></g></g></g><g transform="matrix(1, 0, 0, 1, 340, 124)"><g clip-path="url(#d8f4197fc2)"><g fill="#072763" fill-opacity="1"><g transform="translate(0.267603, 61.130506)"><g><path d="M 38.65625 -4.0625 L 38.65625 0 L 7.234375 0 L 7.234375 -44.4375 L 37.703125 -44.4375 L 37.703125 -40.375 L 11.9375 -40.375 L 11.9375 -24.5625 L 34.921875 -24.5625 L 34.921875 -20.5625 L 11.9375 -20.5625 L 11.9375 -4.0625 Z M 38.65625 -4.0625 "/></g></g></g><g fill="#072763" fill-opacity="1"><g transform="translate(45.085151, 61.130506)"><g><path d="M 23.296875 -33.640625 C 27.484375 -33.640625 30.816406 -32.421875 33.296875 -29.984375 C 35.773438 -27.554688 37.015625 -24.015625 37.015625 -19.359375 L 37.015625 0 L 32.5 0 L 32.5 -18.921875 C 32.5 -22.390625 31.628906 -25.03125 29.890625 -26.84375 C 28.160156 -28.664062 25.6875 -29.578125 22.46875 -29.578125 C 18.875 -29.578125 16.03125 -28.507812 13.9375 -26.375 C 11.84375 -24.238281 10.796875 -21.285156 10.796875 -17.515625 L 10.796875 0 L 6.28125 0 L 6.28125 -33.390625 L 10.609375 -33.390625 L 10.609375 -27.234375 C 11.828125 -29.265625 13.523438 -30.835938 15.703125 -31.953125 C 17.890625 -33.078125 20.421875 -33.640625 23.296875 -33.640625 Z M 23.296875 -33.640625 "/></g></g></g><g fill="#072763" fill-opacity="1"><g transform="translate(90.537516, 61.130506)"><g><path d="M 37.203125 -33.390625 L 37.203125 -4.0625 C 37.203125 1.601562 35.816406 5.800781 33.046875 8.53125 C 30.273438 11.269531 26.09375 12.640625 20.5 12.640625 C 17.414062 12.640625 14.484375 12.179688 11.703125 11.265625 C 8.929688 10.359375 6.679688 9.097656 4.953125 7.484375 L 7.234375 4.0625 C 8.847656 5.5 10.804688 6.617188 13.109375 7.421875 C 15.410156 8.234375 17.832031 8.640625 20.375 8.640625 C 24.613281 8.640625 27.722656 7.65625 29.703125 5.6875 C 31.691406 3.71875 32.6875 0.660156 32.6875 -3.484375 L 32.6875 -7.75 C 31.289062 -5.632812 29.460938 -4.023438 27.203125 -2.921875 C 24.941406 -1.816406 22.4375 -1.265625 19.6875 -1.265625 C 16.550781 -1.265625 13.703125 -1.953125 11.140625 -3.328125 C 8.578125 -4.703125 6.566406 -6.628906 5.109375 -9.109375 C 3.648438 -11.585938 2.921875 -14.390625 2.921875 -17.515625 C 2.921875 -20.648438 3.648438 -23.441406 5.109375 -25.890625 C 6.566406 -28.347656 8.566406 -30.253906 11.109375 -31.609375 C 13.648438 -32.960938 16.507812 -33.640625 19.6875 -33.640625 C 22.519531 -33.640625 25.078125 -33.066406 27.359375 -31.921875 C 29.648438 -30.785156 31.492188 -29.140625 32.890625 -26.984375 L 32.890625 -33.390625 Z M 20.125 -5.265625 C 22.539062 -5.265625 24.71875 -5.78125 26.65625 -6.8125 C 28.601562 -7.851562 30.117188 -9.304688 31.203125 -11.171875 C 32.285156 -13.035156 32.828125 -15.148438 32.828125 -17.515625 C 32.828125 -19.890625 32.285156 -21.992188 31.203125 -23.828125 C 30.117188 -25.671875 28.613281 -27.109375 26.6875 -28.140625 C 24.769531 -29.179688 22.582031 -29.703125 20.125 -29.703125 C 17.707031 -29.703125 15.535156 -29.191406 13.609375 -28.171875 C 11.691406 -27.160156 10.191406 -25.722656 9.109375 -23.859375 C 8.023438 -22.003906 7.484375 -19.890625 7.484375 -17.515625 C 7.484375 -15.148438 8.023438 -13.035156 9.109375 -11.171875 C 10.191406 -9.304688 11.691406 -7.851562 13.609375 -6.8125 C 15.535156 -5.78125 17.707031 -5.265625 20.125 -5.265625 Z M 20.125 -5.265625 "/></g></g></g><g fill="#072763" fill-opacity="1"><g transform="translate(136.434226, 61.130506)"><g><path d="M 35.359375 -15.296875 L 7.421875 -15.296875 C 7.679688 -11.828125 9.015625 -9.023438 11.421875 -6.890625 C 13.835938 -4.753906 16.882812 -3.6875 20.5625 -3.6875 C 22.644531 -3.6875 24.550781 -4.054688 26.28125 -4.796875 C 28.019531 -5.535156 29.523438 -6.625 30.796875 -8.0625 L 33.328125 -5.140625 C 31.847656 -3.359375 29.992188 -2.003906 27.765625 -1.078125 C 25.546875 -0.148438 23.101562 0.3125 20.4375 0.3125 C 17.007812 0.3125 13.972656 -0.414062 11.328125 -1.875 C 8.679688 -3.332031 6.617188 -5.351562 5.140625 -7.9375 C 3.660156 -10.519531 2.921875 -13.441406 2.921875 -16.703125 C 2.921875 -19.953125 3.628906 -22.867188 5.046875 -25.453125 C 6.460938 -28.035156 8.40625 -30.046875 10.875 -31.484375 C 13.351562 -32.921875 16.140625 -33.640625 19.234375 -33.640625 C 22.328125 -33.640625 25.097656 -32.921875 27.546875 -31.484375 C 30.003906 -30.046875 31.929688 -28.046875 33.328125 -25.484375 C 34.722656 -22.921875 35.421875 -19.992188 35.421875 -16.703125 Z M 19.234375 -29.78125 C 16.015625 -29.78125 13.316406 -28.75 11.140625 -26.6875 C 8.960938 -24.632812 7.722656 -21.960938 7.421875 -18.671875 L 31.109375 -18.671875 C 30.804688 -21.960938 29.566406 -24.632812 27.390625 -26.6875 C 25.210938 -28.75 22.492188 -29.78125 19.234375 -29.78125 Z M 19.234375 -29.78125 "/></g></g></g><g fill="#072763" fill-opacity="1"><g transform="translate(177.12556, 61.130506)"><g><path d="M 23.296875 -33.640625 C 27.484375 -33.640625 30.816406 -32.421875 33.296875 -29.984375 C 35.773438 -27.554688 37.015625 -24.015625 37.015625 -19.359375 L 37.015625 0 L 32.5 0 L 32.5 -18.921875 C 32.5 -22.390625 31.628906 -25.03125 29.890625 -26.84375 C 28.160156 -28.664062 25.6875 -29.578125 22.46875 -29.578125 C 18.875 -29.578125 16.03125 -28.507812 13.9375 -26.375 C 11.84375 -24.238281 10.796875 -21.285156 10.796875 -17.515625 L 10.796875 0 L 6.28125 0 L 6.28125 -33.390625 L 10.609375 -33.390625 L 10.609375 -27.234375 C 11.828125 -29.265625 13.523438 -30.835938 15.703125 -31.953125 C 17.890625 -33.078125 20.421875 -33.640625 23.296875 -33.640625 Z M 23.296875 -33.640625 "/></g></g></g><g fill="#072763" fill-opacity="1"><g transform="translate(222.450939, 61.130506)"><g><path d="M 23.296875 -33.640625 C 27.484375 -33.640625 30.816406 -32.421875 33.296875 -29.984375 C 35.773438 -27.554688 37.015625 -24.015625 37.015625 -19.359375 L 37.015625 0 L 32.5 0 L 32.5 -18.921875 C 32.5 -22.390625 31.628906 -25.03125 29.890625 -26.84375 C 28.160156 -28.664062 25.6875 -29.578125 22.46875 -29.578125 C 18.875 -29.578125 16.03125 -28.507812 13.9375 -26.375 C 11.84375 -24.238281 10.796875 -21.285156 10.796875 -17.515625 L 10.796875 0 L 6.28125 0 L 6.28125 -47.109375 L 10.796875 -47.109375 L 10.796875 -27.546875 C 12.023438 -29.492188 13.71875 -30.992188 15.875 -32.046875 C 18.03125 -33.109375 20.503906 -33.640625 23.296875 -33.640625 Z M 23.296875 -33.640625 "/></g></g></g><g fill="#072763" fill-opacity="1"><g transform="translate(267.776331, 61.130506)"><g><path d="M 17.96875 -33.640625 C 22.320312 -33.640625 25.660156 -32.550781 27.984375 -30.375 C 30.316406 -28.195312 31.484375 -24.972656 31.484375 -20.703125 L 31.484375 0 L 27.171875 0 L 27.171875 -5.203125 C 26.148438 -3.472656 24.65625 -2.117188 22.6875 -1.140625 C 20.726562 -0.171875 18.394531 0.3125 15.6875 0.3125 C 11.957031 0.3125 8.988281 -0.570312 6.78125 -2.34375 C 4.582031 -4.125 3.484375 -6.472656 3.484375 -9.390625 C 3.484375 -12.234375 4.507812 -14.519531 6.5625 -16.25 C 8.625 -17.988281 11.894531 -18.859375 16.375 -18.859375 L 26.984375 -18.859375 L 26.984375 -20.890625 C 26.984375 -23.765625 26.175781 -25.953125 24.5625 -27.453125 C 22.957031 -28.953125 20.609375 -29.703125 17.515625 -29.703125 C 15.398438 -29.703125 13.367188 -29.351562 11.421875 -28.65625 C 9.472656 -27.957031 7.800781 -27 6.40625 -25.78125 L 4.375 -29.140625 C 6.070312 -30.578125 8.101562 -31.6875 10.46875 -32.46875 C 12.84375 -33.25 15.34375 -33.640625 17.96875 -33.640625 Z M 16.375 -3.234375 C 18.914062 -3.234375 21.09375 -3.816406 22.90625 -4.984375 C 24.726562 -6.148438 26.085938 -7.832031 26.984375 -10.03125 L 26.984375 -15.484375 L 16.5 -15.484375 C 10.789062 -15.484375 7.9375 -13.492188 7.9375 -9.515625 C 7.9375 -7.578125 8.675781 -6.046875 10.15625 -4.921875 C 11.632812 -3.796875 13.707031 -3.234375 16.375 -3.234375 Z M 16.375 -3.234375 "/></g></g></g><g fill="#072763" fill-opacity="1"><g transform="translate(307.57895, 61.130506)"><g><path d="M 10.609375 -26.859375 C 11.660156 -29.097656 13.234375 -30.785156 15.328125 -31.921875 C 17.421875 -33.066406 20.015625 -33.640625 23.109375 -33.640625 L 23.109375 -29.265625 L 22.03125 -29.328125 C 18.519531 -29.328125 15.769531 -28.25 13.78125 -26.09375 C 11.789062 -23.9375 10.796875 -20.910156 10.796875 -17.015625 L 10.796875 0 L 6.28125 0 L 6.28125 -33.390625 L 10.609375 -33.390625 Z M 10.609375 -26.859375 "/></g></g></g><g fill="#072763" fill-opacity="1"><g transform="translate(334.875879, 61.130506)"><g><path d="M 6.28125 -33.390625 L 10.796875 -33.390625 L 10.796875 0 L 6.28125 0 Z M 8.5625 -40.6875 C 7.632812 -40.6875 6.851562 -41.003906 6.21875 -41.640625 C 5.582031 -42.273438 5.265625 -43.039062 5.265625 -43.9375 C 5.265625 -44.78125 5.582031 -45.519531 6.21875 -46.15625 C 6.851562 -46.789062 7.632812 -47.109375 8.5625 -47.109375 C 9.488281 -47.109375 10.269531 -46.800781 10.90625 -46.1875 C 11.539062 -45.570312 11.859375 -44.84375 11.859375 -44 C 11.859375 -43.0625 11.539062 -42.273438 10.90625 -41.640625 C 10.269531 -41.003906 9.488281 -40.6875 8.5625 -40.6875 Z M 8.5625 -40.6875 "/></g></g></g><g fill="#072763" fill-opacity="1"><g transform="translate(354.301277, 61.130506)"><g><path d="M 17.96875 -33.640625 C 22.320312 -33.640625 25.660156 -32.550781 27.984375 -30.375 C 30.316406 -28.195312 31.484375 -24.972656 31.484375 -20.703125 L 31.484375 0 L 27.171875 0 L 27.171875 -5.203125 C 26.148438 -3.472656 24.65625 -2.117188 22.6875 -1.140625 C 20.726562 -0.171875 18.394531 0.3125 15.6875 0.3125 C 11.957031 0.3125 8.988281 -0.570312 6.78125 -2.34375 C 4.582031 -4.125 3.484375 -6.472656 3.484375 -9.390625 C 3.484375 -12.234375 4.507812 -14.519531 6.5625 -16.25 C 8.625 -17.988281 11.894531 -18.859375 16.375 -18.859375 L 26.984375 -18.859375 L 26.984375 -20.890625 C 26.984375 -23.765625 26.175781 -25.953125 24.5625 -27.453125 C 22.957031 -28.953125 20.609375 -29.703125 17.515625 -29.703125 C 15.398438 -29.703125 13.367188 -29.351562 11.421875 -28.65625 C 9.472656 -27.957031 7.800781 -27 6.40625 -25.78125 L 4.375 -29.140625 C 6.070312 -30.578125 8.101562 -31.6875 10.46875 -32.46875 C 12.84375 -33.25 15.34375 -33.640625 17.96875 -33.640625 Z M 16.375 -3.234375 C 18.914062 -3.234375 21.09375 -3.816406 22.90625 -4.984375 C 24.726562 -6.148438 26.085938 -7.832031 26.984375 -10.03125 L 26.984375 -15.484375 L 16.5 -15.484375 C 10.789062 -15.484375 7.9375 -13.492188 7.9375 -9.515625 C 7.9375 -7.578125 8.675781 -6.046875 10.15625 -4.921875 C 11.632812 -3.796875 13.707031 -3.234375 16.375 -3.234375 Z M 16.375 -3.234375 "/></g></g></g></g></g></svg>